<svg width="164" height="54" viewBox="0 0 164 54" fill="none" xmlns="http://www.w3.org/2000/svg">
<path d="M2.67365 28V8.51754H6.6587V28H2.67365ZM24.2446 18.9377V28H20.289V19.469C20.289 18.6228 20.0332 17.9439 19.5216 17.4322C19.0296 16.9009 18.3802 16.6352 17.5733 16.6352C16.7665 16.6352 16.0974 16.9009 15.566 17.4322C15.0544 17.9439 14.7985 18.6228 14.7985 19.469V28H10.8135V13.3882H14.4738V14.7165C15.5759 13.6145 17.0026 13.0634 18.7541 13.0634C20.4465 13.0634 21.7847 13.5948 22.7686 14.6575C23.7526 15.7201 24.2446 17.1469 24.2446 18.9377ZM125.319 8.16331H126.618V28H122.633V17.6094L117.733 23.7493H116.434L111.534 17.6094V28H107.549V8.16331H108.848L117.084 18.7016L125.319 8.16331ZM143.044 19.3214V28H139.384V26.5831C138.243 27.7638 136.757 28.3542 134.927 28.3542C133.392 28.3542 132.162 27.9508 131.237 27.144C130.332 26.3371 129.879 25.2843 129.879 23.9854C129.879 22.6669 130.371 21.6338 131.355 20.8859C132.359 20.1185 133.707 19.7347 135.399 19.7347H139.059V19.0853C139.059 18.2588 138.823 17.629 138.351 17.1961C137.898 16.7435 137.229 16.5172 136.344 16.5172C135.616 16.5172 134.956 16.6746 134.366 16.9895C133.776 17.3043 133.146 17.816 132.477 18.5244L130.41 16.0744C132.103 14.0671 134.228 13.0634 136.786 13.0634C138.715 13.0634 140.24 13.6145 141.362 14.7165C142.484 15.7989 143.044 17.3338 143.044 19.3214ZM139.059 22.539V22.3619H135.93C134.573 22.3619 133.894 22.8539 133.894 23.8378C133.894 24.3298 134.081 24.7234 134.454 25.0186C134.848 25.2941 135.36 25.4319 135.989 25.4319C136.875 25.4319 137.603 25.1662 138.174 24.6348C138.764 24.0838 139.059 23.3852 139.059 22.539ZM160.385 15.2478C161.742 16.6844 162.421 18.4949 162.421 20.6793C162.421 22.8637 161.742 24.6939 160.385 26.1698C159.046 27.6261 157.364 28.3542 155.337 28.3542C153.507 28.3542 152.05 27.7638 150.968 26.5831V33.3134H146.983V13.3882H150.643V15.2183C151.647 13.7817 153.211 13.0634 155.337 13.0634C157.364 13.0634 159.046 13.7916 160.385 15.2478ZM158.377 20.7088C158.377 19.5084 158.023 18.5343 157.315 17.7865C156.606 17.0387 155.701 16.6647 154.599 16.6647C153.536 16.6647 152.651 17.019 151.942 17.7274C151.253 18.4359 150.909 19.4198 150.909 20.6793C150.909 21.9388 151.253 22.9326 151.942 23.6607C152.651 24.3692 153.536 24.7234 154.599 24.7234C155.681 24.7234 156.577 24.3495 157.285 23.6017C158.013 22.8539 158.377 21.8896 158.377 20.7088Z" fill="white"/>
<path d="M32.8482 28V12.1188H26.6197V8.51754H43.0912V12.1188H36.8332V28H32.8482ZM53.2314 13.3882V16.9009H52.1687C50.9486 16.9009 49.9844 17.2256 49.2759 17.875C48.5871 18.5244 48.2427 19.469 48.2427 20.7088V28H44.2577V13.3882H47.918V15.1298C48.9414 13.8506 50.2795 13.211 51.9326 13.211C52.4246 13.211 52.8575 13.2701 53.2314 13.3882ZM67.7674 19.3214V28H64.1071V26.5831C62.9657 27.7638 61.4799 28.3542 59.6497 28.3542C58.1147 28.3542 56.8848 27.9508 55.9598 27.144C55.0546 26.3371 54.602 25.2843 54.602 23.9854C54.602 22.6669 55.094 21.6338 56.0779 20.8859C57.0816 20.1185 58.4296 19.7347 60.122 19.7347H63.7824V19.0853C63.7824 18.2588 63.5462 17.629 63.0739 17.1961C62.6213 16.7435 61.9522 16.5172 61.0666 16.5172C60.3385 16.5172 59.6792 16.6746 59.0888 16.9895C58.4985 17.3043 57.8687 17.816 57.1996 18.5244L55.1333 16.0744C56.8257 14.0671 58.9511 13.0634 61.5094 13.0634C63.438 13.0634 64.9631 13.6145 66.0848 14.7165C67.2065 15.7989 67.7674 17.3338 67.7674 19.3214ZM63.7824 22.539V22.3619H60.6534C59.2955 22.3619 58.6165 22.8539 58.6165 23.8378C58.6165 24.3298 58.8035 24.7234 59.1774 25.0186C59.571 25.2941 60.0827 25.4319 60.7124 25.4319C61.598 25.4319 62.3261 25.1662 62.8968 24.6348C63.4872 24.0838 63.7824 23.3852 63.7824 22.539ZM82.3327 5.86083H86.3177V28H82.6574V26.1993C81.6537 27.6359 80.0892 28.3542 77.9639 28.3542C75.9172 28.3542 74.2248 27.6359 72.8866 26.1993C71.5484 24.7431 70.8793 22.9129 70.8793 20.7088C70.8793 18.5048 71.5484 16.6844 72.8866 15.2478C74.2248 13.7916 75.9172 13.0634 77.9639 13.0634C79.8137 13.0634 81.27 13.644 82.3327 14.8051V5.86083ZM81.329 23.6607C82.0375 22.9523 82.3917 21.9683 82.3917 20.7088C82.3917 19.4494 82.0375 18.4654 81.329 17.7569C80.6206 17.0288 79.7448 16.6647 78.7018 16.6647C77.6195 16.6647 76.7142 17.0387 75.9861 17.7865C75.2777 18.5343 74.9234 19.4986 74.9234 20.6793C74.9234 21.8798 75.2777 22.8539 75.9861 23.6017C76.6946 24.3495 77.5998 24.7234 78.7018 24.7234C79.7645 24.7234 80.6403 24.3692 81.329 23.6607ZM103.805 22.0372H93.5618C93.798 22.9621 94.2703 23.6804 94.9787 24.1921C95.7069 24.684 96.6023 24.93 97.665 24.93C99.1015 24.93 100.459 24.4381 101.739 23.4541L103.392 26.1698C101.64 27.6261 99.6919 28.3542 97.5469 28.3542C95.3034 28.3936 93.3946 27.6655 91.8202 26.1698C90.2656 24.6545 89.5079 22.8342 89.5473 20.7088C89.5079 18.6032 90.2459 16.7927 91.7612 15.2774C93.2765 13.7621 95.087 13.0241 97.1927 13.0634C99.1999 13.0634 100.843 13.7129 102.122 15.0117C103.421 16.3105 104.071 17.9242 104.071 19.8528C104.071 20.5612 103.982 21.2894 103.805 22.0372ZM93.5618 19.2329H100.204C100.184 18.3473 99.869 17.6389 99.259 17.1075C98.6686 16.5565 97.9306 16.281 97.0451 16.281C96.1989 16.281 95.4609 16.5467 94.8311 17.078C94.2014 17.6094 93.7783 18.3276 93.5618 19.2329Z" fill="#52FFA5"/>
<path d="M1.41822 39.3779H2.15928V48.7836H1.41822V39.3779ZM8.38972 41.7578C9.17828 41.7578 9.79583 42.0048 10.2424 42.4989C10.6889 42.9929 10.9122 43.639 10.9122 44.437V48.7836H10.1996V44.4798C10.1996 43.8717 10.0239 43.3777 9.67232 42.9977C9.33029 42.6176 8.86476 42.4276 8.27571 42.4276C7.67716 42.4276 7.18312 42.6224 6.79359 43.0119C6.41355 43.4014 6.22354 43.8907 6.22354 44.4798V48.7836H5.51098V41.9003H6.19504V42.8266C6.43256 42.4846 6.73658 42.2233 7.10711 42.0428C7.48714 41.8528 7.91468 41.7578 8.38972 41.7578ZM17.049 41.7578C17.8375 41.7578 18.4551 42.0048 18.9016 42.4989C19.3482 42.9929 19.5714 43.639 19.5714 44.437V48.7836H18.8589V44.4798C18.8589 43.8717 18.6831 43.3777 18.3316 42.9977C17.9896 42.6176 17.524 42.4276 16.935 42.4276C16.3364 42.4276 15.8424 42.6224 15.4528 43.0119C15.0728 43.4014 14.8828 43.8907 14.8828 44.4798V48.7836H14.1702V41.9003H14.8543V42.8266C15.0918 42.4846 15.3958 42.2233 15.7664 42.0428C16.1464 41.8528 16.5739 41.7578 17.049 41.7578ZM25.8507 48.9261C25.2047 48.9261 24.6061 48.7694 24.0551 48.4559C23.5136 48.1328 23.086 47.6958 22.7725 47.1447C22.459 46.5937 22.3022 45.9904 22.3022 45.3348C22.3022 44.6698 22.459 44.0665 22.7725 43.5249C23.086 42.9739 23.5136 42.5416 24.0551 42.2281C24.6061 41.9146 25.2094 41.7578 25.865 41.7578C26.5206 41.7578 27.1191 41.9193 27.6606 42.2423C28.2022 42.5559 28.6297 42.9882 28.9432 43.5392C29.2663 44.0807 29.4278 44.6793 29.4278 45.3348C29.4278 45.9904 29.2663 46.5937 28.9432 47.1447C28.6297 47.6958 28.1974 48.1328 27.6464 48.4559C27.1048 48.7694 26.5063 48.9261 25.8507 48.9261ZM25.8507 48.2563C26.3733 48.2563 26.8483 48.1281 27.2759 47.8716C27.7129 47.615 28.0549 47.2683 28.3019 46.8312C28.5585 46.3847 28.6867 45.8906 28.6867 45.3491C28.6867 44.7981 28.5585 44.304 28.3019 43.867C28.0549 43.4204 27.7176 43.0689 27.2901 42.8124C26.8626 42.5559 26.3875 42.4276 25.865 42.4276C25.333 42.4276 24.8532 42.5559 24.4256 42.8124C23.9981 43.0689 23.6608 43.4204 23.4138 43.867C23.1668 44.304 23.0433 44.7981 23.0433 45.3491C23.0433 45.8906 23.1668 46.3847 23.4138 46.8312C23.6608 47.2683 23.9981 47.615 24.4256 47.8716C24.8532 48.1281 25.3282 48.2563 25.8507 48.2563ZM37.7187 41.9003L34.5835 48.9261H34.2842L31.1204 41.9003H31.89L34.4267 47.7005L36.9492 41.9003H37.7187ZM42.2479 41.7578C43.027 41.7578 43.6493 41.9906 44.1148 42.4561C44.5899 42.9216 44.8274 43.5915 44.8274 44.4655V48.7836H44.1434V47.7005C43.8963 48.0901 43.5591 48.3941 43.1315 48.6126C42.704 48.8216 42.2194 48.9261 41.6779 48.9261C41.0128 48.9261 40.4523 48.7646 39.9963 48.4416C39.5402 48.1091 39.3122 47.6483 39.3122 47.0592C39.3122 46.4987 39.5307 46.0522 39.9678 45.7196C40.4048 45.3871 40.9843 45.2208 41.7064 45.2208H44.1006V44.437C44.1006 43.7815 43.9296 43.2827 43.5876 42.9406C43.2455 42.5986 42.7847 42.4276 42.2052 42.4276C41.7682 42.4276 41.3834 42.5274 41.0508 42.7269C40.7183 42.9169 40.4048 43.2019 40.1103 43.582L39.6115 43.1829C40.2765 42.2328 41.1554 41.7578 42.2479 41.7578ZM41.7492 48.2991C42.1672 48.2991 42.5567 48.2088 42.9177 48.0283C43.2788 47.8478 43.5638 47.6008 43.7728 47.2873C43.9913 46.9642 44.1006 46.608 44.1006 46.2184V45.8336H41.7777C41.2171 45.8336 40.7896 45.9381 40.4951 46.1472C40.2005 46.3467 40.0533 46.6365 40.0533 47.0165C40.0533 47.4345 40.2195 47.7528 40.5521 47.9713C40.8846 48.1898 41.2836 48.2991 41.7492 48.2991ZM51.5324 48.1566V48.7836C51.1713 48.8786 50.8151 48.9261 50.4635 48.9261C49.8175 48.9261 49.3044 48.7599 48.9244 48.4274C48.5444 48.0948 48.3543 47.5723 48.3543 46.8597V42.5559H47.1572V41.9003H48.3543V39.9479H49.0812V41.9003H51.3043V42.5559H49.0812V46.8312C49.0812 47.3538 49.2142 47.7243 49.4802 47.9428C49.7462 48.1613 50.112 48.2706 50.5775 48.2706C50.8531 48.2706 51.1713 48.2326 51.5324 48.1566ZM53.9733 41.9003H54.6859V48.7836H53.9733V41.9003ZM54.3296 39.8766C54.1491 39.8766 53.9971 39.8149 53.8736 39.6914C53.7596 39.5679 53.7025 39.4206 53.7025 39.2496C53.7025 39.0786 53.7596 38.9313 53.8736 38.8078C53.9971 38.6843 54.1491 38.6225 54.3296 38.6225C54.5006 38.6225 54.6479 38.6843 54.7714 38.8078C54.8949 38.9313 54.9567 39.0786 54.9567 39.2496C54.9567 39.4206 54.8949 39.5679 54.7714 39.6914C54.6479 39.8149 54.5006 39.8766 54.3296 39.8766ZM61.0751 48.9261C60.429 48.9261 59.8305 48.7694 59.2794 48.4559C58.7379 48.1328 58.3104 47.6958 57.9968 47.1447C57.6833 46.5937 57.5265 45.9904 57.5265 45.3348C57.5265 44.6698 57.6833 44.0665 57.9968 43.5249C58.3104 42.9739 58.7379 42.5416 59.2794 42.2281C59.8305 41.9146 60.4338 41.7578 61.0893 41.7578C61.7449 41.7578 62.3434 41.9193 62.885 42.2423C63.4265 42.5559 63.8541 42.9882 64.1676 43.5392C64.4906 44.0807 64.6521 44.6793 64.6521 45.3348C64.6521 45.9904 64.4906 46.5937 64.1676 47.1447C63.8541 47.6958 63.4218 48.1328 62.8707 48.4559C62.3292 48.7694 61.7306 48.9261 61.0751 48.9261ZM61.0751 48.2563C61.5976 48.2563 62.0727 48.1281 62.5002 47.8716C62.9372 47.615 63.2793 47.2683 63.5263 46.8312C63.7828 46.3847 63.9111 45.8906 63.9111 45.3491C63.9111 44.7981 63.7828 44.304 63.5263 43.867C63.2793 43.4204 62.942 43.0689 62.5144 42.8124C62.0869 42.5559 61.6119 42.4276 61.0893 42.4276C60.5573 42.4276 60.0775 42.5559 59.65 42.8124C59.2224 43.0689 58.8851 43.4204 58.6381 43.867C58.3911 44.304 58.2676 44.7981 58.2676 45.3491C58.2676 45.8906 58.3911 46.3847 58.6381 46.8312C58.8851 47.2683 59.2224 47.615 59.65 47.8716C60.0775 48.1281 60.5525 48.2563 61.0751 48.2563ZM70.3712 41.7578C71.1598 41.7578 71.7773 42.0048 72.2238 42.4989C72.6704 42.9929 72.8936 43.639 72.8936 44.437V48.7836H72.1811V44.4798C72.1811 43.8717 72.0053 43.3777 71.6538 42.9977C71.3118 42.6176 70.8462 42.4276 70.2572 42.4276C69.6586 42.4276 69.1646 42.6224 68.7751 43.0119C68.395 43.4014 68.205 43.8907 68.205 44.4798V48.7836H67.4925V41.9003H68.1765V42.8266C68.414 42.4846 68.7181 42.2233 69.0886 42.0428C69.4686 41.8528 69.8961 41.7578 70.3712 41.7578ZM83.1672 41.7578C83.9462 41.7578 84.5685 41.9906 85.0341 42.4561C85.5091 42.9216 85.7466 43.5915 85.7466 44.4655V48.7836H85.0626V47.7005C84.8156 48.0901 84.4783 48.3941 84.0508 48.6126C83.6232 48.8216 83.1387 48.9261 82.5971 48.9261C81.9321 48.9261 81.3715 48.7646 80.9155 48.4416C80.4595 48.1091 80.2314 47.6483 80.2314 47.0592C80.2314 46.4987 80.45 46.0522 80.887 45.7196C81.324 45.3871 81.9036 45.2208 82.6256 45.2208H85.0198V44.437C85.0198 43.7815 84.8488 43.2827 84.5068 42.9406C84.1648 42.5986 83.704 42.4276 83.1244 42.4276C82.6874 42.4276 82.3026 42.5274 81.9701 42.7269C81.6376 42.9169 81.324 43.2019 81.0295 43.582L80.5307 43.1829C81.1958 42.2328 82.0746 41.7578 83.1672 41.7578ZM82.6684 48.2991C83.0864 48.2991 83.476 48.2088 83.837 48.0283C84.198 47.8478 84.483 47.6008 84.6921 47.2873C84.9106 46.9642 85.0198 46.608 85.0198 46.2184V45.8336H82.6969C82.1363 45.8336 81.7088 45.9381 81.4143 46.1472C81.1198 46.3467 80.9725 46.6365 80.9725 47.0165C80.9725 47.4345 81.1388 47.7528 81.4713 47.9713C81.8038 48.1898 82.2029 48.2991 82.6684 48.2991ZM91.8815 41.7578C92.6701 41.7578 93.2877 42.0048 93.7342 42.4989C94.1807 42.9929 94.404 43.639 94.404 44.437V48.7836H93.6914V44.4798C93.6914 43.8717 93.5157 43.3777 93.1642 42.9977C92.8221 42.6176 92.3566 42.4276 91.7675 42.4276C91.169 42.4276 90.6749 42.6224 90.2854 43.0119C89.9054 43.4014 89.7154 43.8907 89.7154 44.4798V48.7836H89.0028V41.9003H89.6869V42.8266C89.9244 42.4846 90.2284 42.2233 90.5989 42.0428C90.979 41.8528 91.4065 41.7578 91.8815 41.7578ZM104.047 38.0952V48.7836H103.363V47.387C103.106 47.8621 102.721 48.2373 102.208 48.5129C101.705 48.7884 101.154 48.9261 100.555 48.9261C99.9185 48.9261 99.339 48.7694 98.8164 48.4559C98.2939 48.1328 97.8806 47.7005 97.5766 47.159C97.282 46.608 97.1348 46.0047 97.1348 45.3491C97.1348 44.684 97.282 44.0807 97.5766 43.5392C97.8711 42.9882 98.2796 42.5559 98.8022 42.2423C99.3247 41.9193 99.909 41.7578 100.555 41.7578C101.144 41.7578 101.686 41.8908 102.18 42.1568C102.683 42.4229 103.068 42.7839 103.334 43.2399V38.0952H104.047ZM100.626 48.2563C101.101 48.2563 101.543 48.1518 101.952 47.9428C102.37 47.7338 102.702 47.4108 102.949 46.9737C103.206 46.5367 103.334 45.9952 103.334 45.3491C103.334 44.6935 103.206 44.1472 102.949 43.7102C102.702 43.2732 102.37 42.9502 101.952 42.7411C101.543 42.5321 101.101 42.4276 100.626 42.4276C100.104 42.4276 99.6335 42.5559 99.2155 42.8124C98.7974 43.0594 98.4696 43.4062 98.2321 43.8527C97.9946 44.2993 97.8758 44.7933 97.8758 45.3348C97.8758 45.8764 97.9946 46.3704 98.2321 46.817C98.4696 47.2635 98.7974 47.615 99.2155 47.8716C99.6335 48.1281 100.104 48.2563 100.626 48.2563ZM115.562 48.1566V48.7836C115.201 48.8786 114.845 48.9261 114.494 48.9261C113.848 48.9261 113.335 48.7599 112.954 48.4274C112.574 48.0948 112.384 47.5723 112.384 46.8597V42.5559H111.187V41.9003H112.384V39.9479H113.111V41.9003H115.334V42.5559H113.111V46.8312C113.111 47.3538 113.244 47.7243 113.51 47.9428C113.776 48.1613 114.142 48.2706 114.608 48.2706C114.883 48.2706 115.201 48.2326 115.562 48.1566ZM120.968 41.8576C121.063 41.8576 121.148 41.8671 121.224 41.8861C121.31 41.8956 121.371 41.9003 121.409 41.9003V42.5274H121.053C120.664 42.5274 120.288 42.6176 119.927 42.7981C119.566 42.9692 119.272 43.2209 119.044 43.5534C118.825 43.886 118.716 44.2803 118.716 44.7363V48.7836H118.003V41.9003H118.687V43.0689C118.934 42.6699 119.257 42.3706 119.657 42.1711C120.056 41.9621 120.493 41.8576 120.968 41.8576ZM125.868 41.7578C126.647 41.7578 127.269 41.9906 127.735 42.4561C128.21 42.9216 128.447 43.5915 128.447 44.4655V48.7836H127.763V47.7005C127.516 48.0901 127.179 48.3941 126.751 48.6126C126.324 48.8216 125.839 48.9261 125.298 48.9261C124.633 48.9261 124.072 48.7646 123.616 48.4416C123.16 48.1091 122.932 47.6483 122.932 47.0592C122.932 46.4987 123.151 46.0522 123.588 45.7196C124.025 45.3871 124.604 45.2208 125.326 45.2208H127.72V44.437C127.72 43.7815 127.549 43.2827 127.207 42.9406C126.865 42.5986 126.405 42.4276 125.825 42.4276C125.388 42.4276 125.003 42.5274 124.671 42.7269C124.338 42.9169 124.025 43.2019 123.73 43.582L123.231 43.1829C123.896 42.2328 124.775 41.7578 125.868 41.7578ZM125.369 48.2991C125.787 48.2991 126.177 48.2088 126.538 48.0283C126.899 47.8478 127.184 47.6008 127.393 47.2873C127.611 46.9642 127.72 46.608 127.72 46.2184V45.8336H125.398C124.837 45.8336 124.409 45.9381 124.115 46.1472C123.82 46.3467 123.673 46.6365 123.673 47.0165C123.673 47.4345 123.839 47.7528 124.172 47.9713C124.504 48.1898 124.903 48.2991 125.369 48.2991ZM138.088 38.0952V48.7836H137.404V47.387C137.147 47.8621 136.763 48.2373 136.25 48.5129C135.746 48.7884 135.195 48.9261 134.596 48.9261C133.96 48.9261 133.38 48.7694 132.858 48.4559C132.335 48.1328 131.922 47.7005 131.618 47.159C131.323 46.608 131.176 46.0047 131.176 45.3491C131.176 44.684 131.323 44.0807 131.618 43.5392C131.912 42.9882 132.321 42.5559 132.844 42.2423C133.366 41.9193 133.95 41.7578 134.596 41.7578C135.185 41.7578 135.727 41.8908 136.221 42.1568C136.725 42.4229 137.109 42.7839 137.375 43.2399V38.0952H138.088ZM134.668 48.2563C135.143 48.2563 135.585 48.1518 135.993 47.9428C136.411 47.7338 136.744 47.4108 136.991 46.9737C137.247 46.5367 137.375 45.9952 137.375 45.3491C137.375 44.6935 137.247 44.1472 136.991 43.7102C136.744 43.2732 136.411 42.9502 135.993 42.7411C135.585 42.5321 135.143 42.4276 134.668 42.4276C134.145 42.4276 133.675 42.5559 133.257 42.8124C132.839 43.0594 132.511 43.4062 132.273 43.8527C132.036 44.2993 131.917 44.7933 131.917 45.3348C131.917 45.8764 132.036 46.3704 132.273 46.817C132.511 47.2635 132.839 47.615 133.257 47.8716C133.675 48.1281 134.145 48.2563 134.668 48.2563ZM141.448 41.9003H142.161V48.7836H141.448V41.9003ZM141.805 39.8766C141.624 39.8766 141.472 39.8149 141.348 39.6914C141.234 39.5679 141.177 39.4206 141.177 39.2496C141.177 39.0786 141.234 38.9313 141.348 38.8078C141.472 38.6843 141.624 38.6225 141.805 38.6225C141.976 38.6225 142.123 38.6843 142.246 38.8078C142.37 38.9313 142.432 39.0786 142.432 39.2496C142.432 39.4206 142.37 39.5679 142.246 39.6914C142.123 39.8149 141.976 39.8766 141.805 39.8766ZM148.407 41.7578C149.196 41.7578 149.814 42.0048 150.26 42.4989C150.707 42.9929 150.93 43.639 150.93 44.437V48.7836H150.217V44.4798C150.217 43.8717 150.042 43.3777 149.69 42.9977C149.348 42.6176 148.883 42.4276 148.293 42.4276C147.695 42.4276 147.201 42.6224 146.811 43.0119C146.431 43.4014 146.241 43.8907 146.241 44.4798V48.7836H145.529V41.9003H146.213V42.8266C146.45 42.4846 146.754 42.2233 147.125 42.0428C147.505 41.8528 147.932 41.7578 148.407 41.7578ZM160.658 41.9003V48.1708C160.658 48.8549 160.516 49.4439 160.231 49.938C159.955 50.4415 159.57 50.8263 159.076 51.0923C158.582 51.3583 158.012 51.4914 157.366 51.4914C156.72 51.4914 156.121 51.3678 155.57 51.1208C155.019 50.8738 154.563 50.5508 154.202 50.1517L154.644 49.6672C154.996 50.0187 155.399 50.299 155.855 50.508C156.321 50.717 156.82 50.8215 157.352 50.8215C158.131 50.8215 158.758 50.5935 159.233 50.1375C159.708 49.6815 159.945 49.0354 159.945 48.1993V47.2873C159.679 47.7338 159.295 48.0901 158.791 48.3561C158.288 48.6221 157.741 48.7551 157.152 48.7551C156.516 48.7551 155.936 48.6031 155.414 48.2991C154.901 47.9856 154.492 47.5628 154.188 47.0307C153.893 46.4892 153.746 45.8954 153.746 45.2493C153.746 44.6033 153.893 44.0142 154.188 43.4822C154.492 42.9501 154.901 42.5321 155.414 42.2281C155.936 41.9146 156.516 41.7578 157.152 41.7578C157.751 41.7578 158.307 41.8956 158.82 42.1711C159.333 42.4371 159.717 42.8029 159.974 43.2684V41.9003H160.658ZM157.252 48.0853C157.718 48.0853 158.155 47.9808 158.563 47.7718C158.981 47.5628 159.314 47.2493 159.561 46.8312C159.817 46.4037 159.945 45.8764 159.945 45.2493C159.945 44.6223 159.817 44.0997 159.561 43.6817C159.304 43.2637 158.972 42.9549 158.563 42.7554C158.155 42.5464 157.718 42.4419 157.252 42.4419C156.72 42.4419 156.245 42.5654 155.827 42.8124C155.409 43.0594 155.081 43.4014 154.844 43.8385C154.606 44.266 154.487 44.741 154.487 45.2636C154.487 45.7861 154.606 46.2659 154.844 46.703C155.081 47.1305 155.409 47.4678 155.827 47.7148C156.245 47.9618 156.72 48.0853 157.252 48.0853Z" fill="white"/>
</svg>
