<svg width="72" height="60" viewBox="0 0 72 60" fill="none" xmlns="http://www.w3.org/2000/svg">
<g clip-path="url(#clip0_350_1710)">
<path d="M53.432 13.7574H66.6464L72 0H20.9751L15.6215 13.7574H30.4476C31.3675 13.7574 32.0281 14.0479 32.4431 14.6289C32.8269 15.2342 32.8581 15.957 32.5295 16.7904L29.6833 24.0461C27.1898 23.3925 24.5891 22.5832 21.8604 21.5457C15.6457 19.1975 8.85345 15.6768 1.72919 10.2437L0 8.92262C2.09924 19.5364 10.4478 24.0876 20.0309 26.218C22.7354 26.8163 25.5436 27.2244 28.3241 27.5218C30.9905 27.8123 33.6397 28.0025 36.1781 28.165C39.0728 28.3449 41.8222 28.4867 44.2915 28.7011C50.9731 29.2821 55.5174 30.368 55.0228 34.0858C57.499 35.068 59.6363 37.9315 59 41.3276C59.4253 40.259 59.6225 39.2111 59.6225 38.2289C59.6225 35.8323 58.4432 33.8333 56.4615 32.8754C56.1226 28.5593 51.6959 27.757 45.0316 26.837L48.9776 16.7904C49.7592 14.7742 51.2463 13.7574 53.432 13.7574Z" fill="white"/>
<path d="M25.841 33.8679C30.0083 33.3803 33.7883 32.7993 35.725 32.3255C36.7245 32.0834 41.1651 31.3018 41.1651 31.3018C40.7328 31.3329 35.4795 31.2845 34.9469 31.3018C32.8546 31.3502 30.0325 31.2845 26.9269 31.0978C24.1982 30.9248 21.2655 30.6585 18.4435 30.2816C14.1759 29.7248 10.1711 28.8982 7.54614 27.7985C8.94679 30.1087 10.5722 32.4777 12.4916 34.7809C13.7954 34.8432 15.2272 34.819 16.7143 34.7187C19.5675 34.5285 22.808 34.2241 25.841 33.8679Z" fill="#52FFA5"/>
<path d="M32.6575 37.52C32.3047 37.6065 31.9416 37.6895 31.5681 37.7759C31.5232 37.7863 31.4782 37.7967 31.4332 37.807C31.0839 37.8866 30.7277 37.9661 30.3646 38.0457C30.2989 38.0595 30.2297 38.0733 30.1606 38.0906C29.8113 38.1667 29.455 38.2428 29.0954 38.3154C29.0227 38.3293 28.9467 38.3466 28.8706 38.3604C28.5109 38.433 28.1512 38.5056 27.7881 38.5748C27.712 38.5886 27.6359 38.6025 27.5599 38.6163C27.1898 38.6855 26.8198 38.7546 26.4463 38.8169C26.3875 38.8273 26.3287 38.8377 26.2664 38.848C25.8756 38.9137 25.4848 38.9794 25.094 39.0382C25.056 39.0452 25.0179 39.0486 24.9764 39.0555C24.5614 39.1178 24.1464 39.1766 23.7349 39.2319C21.2725 39.5466 18.9001 39.6884 16.9426 39.4982C18.492 40.9542 20.1728 42.3514 22.0057 43.6413C22.227 43.797 22.438 43.9491 22.6593 44.0978L38.9483 35.8185C38.9483 35.8185 38.8791 35.8392 38.7546 35.8773C38.0872 36.0779 35.7424 36.773 32.699 37.5062C32.6921 37.5131 32.6748 37.5165 32.6575 37.52Z" fill="white"/>
<path d="M51.3154 33.1763C51.2635 33.1971 51.2185 33.2178 51.1874 33.2282C51.177 33.1936 51.1632 33.1452 51.1528 33.1002C50.2502 32.6575 49.4686 31.9693 48.9187 32.5503C50.3193 32.6472 48.6178 36.7557 52.5915 33.3838C52.1488 33.4737 51.72 33.3561 51.3154 33.1763Z" fill="#52FFA5"/>
<path d="M15.9917 59.3423H20.5187H32.2807L36.2128 49.3096C39.0833 43.2401 43.6103 40.0791 48.1546 38.8065C46.2214 39.1212 43.1953 39.6641 39.4049 41.1582C33.1764 43.6101 24.8901 48.6179 15.9917 59.3423Z" fill="white"/>
</g>
<defs>
<clipPath id="clip0_350_1710">
<rect width="72" height="59.3423" fill="white"/>
</clipPath>
</defs>
</svg>
